<svg width="240" height="480" viewBox="0 0 240 480" fill="none" xmlns="http://www.w3.org/2000/svg">
  <!-- Phone Screen Background -->
  <rect width="240" height="480" rx="20" fill="#f8f9fa"/>
  
  <!-- Header -->
  <rect x="20" y="20" width="200" height="40" rx="8" fill="#667eea"/>
  <text x="120" y="45" text-anchor="middle" fill="white" font-size="16" font-weight="600">Explore Tours</text>
  
  <!-- Search Bar -->
  <rect x="20" y="80" width="200" height="35" rx="17" fill="white" stroke="#e9ecef" stroke-width="1"/>
  <text x="30" y="102" fill="#6c757d" font-size="12">Search destinations...</text>
  <circle cx="195" cy="97" r="8" fill="#667eea"/>
  
  <!-- Filter Buttons -->
  <rect x="20" y="130" width="60" height="25" rx="12" fill="#667eea"/>
  <text x="50" y="147" text-anchor="middle" fill="white" font-size="10">Jakarta</text>
  
  <rect x="90" y="130" width="50" height="25" rx="12" fill="#e9ecef"/>
  <text x="115" y="147" text-anchor="middle" fill="#6c757d" font-size="10">Bali</text>
  
  <rect x="150" y="130" width="70" height="25" rx="12" fill="#e9ecef"/>
  <text x="185" y="147" text-anchor="middle" fill="#6c757d" font-size="10">Yogyakarta</text>
  
  <!-- Duration Filters -->
  <rect x="20" y="165" width="45" height="25" rx="12" fill="#28a745"/>
  <text x="42" y="182" text-anchor="middle" fill="white" font-size="10">2D1N</text>
  
  <rect x="75" y="165" width="45" height="25" rx="12" fill="#e9ecef"/>
  <text x="97" y="182" text-anchor="middle" fill="#6c757d" font-size="10">3D2N</text>
  
  <rect x="130" y="165" width="45" height="25" rx="12" fill="#e9ecef"/>
  <text x="152" y="182" text-anchor="middle" fill="#6c757d" font-size="10">4D3N</text>
  
  <!-- Tour Cards -->
  <rect x="20" y="210" width="200" height="80" rx="8" fill="white" stroke="#e9ecef" stroke-width="1"/>
  <rect x="25" y="215" width="60" height="50" rx="4" fill="#667eea"/>
  <text x="100" y="230" fill="#2c3e50" font-size="12" font-weight="600">Bromo Sunrise Tour</text>
  <text x="100" y="245" fill="#6c757d" font-size="10">2D1N • From Jakarta</text>
  <text x="100" y="260" fill="#28a745" font-size="12" font-weight="600">Rp 850,000</text>
  <rect x="170" y="270" width="45" height="15" rx="7" fill="#ffc107"/>
  <text x="192" y="280" text-anchor="middle" fill="#2c3e50" font-size="8">Most Loved</text>
  
  <rect x="20" y="300" width="200" height="80" rx="8" fill="white" stroke="#e9ecef" stroke-width="1"/>
  <rect x="25" y="305" width="60" height="50" rx="4" fill="#28a745"/>
  <text x="100" y="320" fill="#2c3e50" font-size="12" font-weight="600">Ijen Blue Fire Tour</text>
  <text x="100" y="335" fill="#6c757d" font-size="10">2D1N • From Jakarta</text>
  <text x="100" y="350" fill="#28a745" font-size="12" font-weight="600">Rp 950,000</text>
  
  <!-- Bottom Navigation -->
  <rect x="0" y="440" width="240" height="40" fill="#f8f9fa"/>
  <circle cx="60" cy="460" r="12" fill="#667eea"/>
  <circle cx="120" cy="460" r="8" fill="#e9ecef"/>
  <circle cx="180" cy="460" r="8" fill="#e9ecef"/>
</svg>